<svg width="158mm" height="161mm" version="1.1" viewBox="0 0 158 161" xmlns="http://www.w3.org/2000/svg"><path d="m1.5913 158.26c2.194 0.34655 4.4107 0.52107 6.6269 0.64713 2.6028 0.0833 5.2063 0.11712 7.8103 0.0946 2.9544-0.036 5.9092 0.0718 8.8573-0.15095 2.2848-0.19929 4.4501-0.93889 6.5984-1.6917 2.1091-0.76087 4.27-1.3597 6.4042-2.0438 1.516-0.49642 2.9675-1.1644 4.4294-1.7987 5.2476-1.9071 9.4836-5.6326 14.208-8.4503 1.8507-1.1219 3.3508-2.7126 5.0006-4.101 1.8058-1.2078 3.5028-2.5521 5.1265-3.9927 1.3307-1.2416 2.4006-2.6425 3.3817-4.1634 0.82936-1.3616 1.5686-2.7463 2.2954-4.1676 0.69476-1.3997 1.0525-2.9028 1.248-4.4425 0.10494-1.1443 0.08919-2.2959 0.08373-3.4438-0.04432-1.4717-0.04016-2.9443-0.03641-4.4164 0.0013-1.3789 0.0064-2.7578 0.0061-4.1367 0.04455-1.3866 0.01762-2.7392-0.23898-4.102-0.27557-1.3875-0.4835-2.7887-1.1624-4.0411-0.7632-1.5781-1.6929-3.0882-2.7647-4.4756-1.2376-1.8061-2.3722-3.6755-3.6201-5.4748-1.4767-2.1019-2.8647-4.2626-4.28-6.4061-1.6587-1.8861-2.9152-4.0617-4.3591-6.1018-1.0531-1.7232-2.1852-3.3971-3.1971-5.145-0.976-1.7544-1.67-3.5981-2.3058-5.4949-0.58319-2.0273-0.97606-4.1077-1.586-6.1272-0.56406-1.8337-1.0468-3.689-1.5903-5.5282-0.54069-2.2552-1.1245-4.504-1.5214-6.7909-0.34225-2.2272-0.7775-4.4339-1.0129-6.6777-0.13474-1.8998-0.30046-3.8083-0.10886-5.7071 0.22176-1.8346 0.57293-3.6698 1.1281-5.434 0.38803-1.3079 0.99789-2.5343 1.5247-3.7881 0.35479-1.1681 0.79411-2.3315 1.5552-3.2971 0.59011-0.87084 0.81808-1.9775 1.4432-2.8118 0.7005-1.5298 2.0259-2.6123 3.15-3.8163 1.391-1.8708 3.4161-2.931 5.2886-4.2188 9.9154-5.7261-30.193 17.263 2.8735-1.7084 2.941-1.6874-5.8731 3.3905-8.8007 5.101-0.23951 0.13994 0.49046-0.25932 0.73569-0.38898 26.784-15.536 2.0216-1.185 1.5153-0.89031-0.23499 0.1368 0.47441-0.26596 0.71478-0.39305 0.73441-0.38831 1.4854-0.7445 2.237-1.0978 1.814-0.7576 3.5767-1.6272 5.3808-2.4079 2.3515-1.0256 4.8013-1.7999 7.2471-2.5636 3.0302-1.0118 6.0885-1.9038 9.1923-2.6566 3.6092-0.95671 7.3138-1.2564 11.033-1.292 3.8752 0.0373 7.7257 0.63177 11.388 1.8993 2.1682 0.72272 4.1758 1.8268 6.2517 2.7684 1.9244 0.7655 3.7224 1.7164 5.4149 2.9039 1.5027 1.0671 2.9772 2.1857 4.0757 3.6788 0.93663 1.1203 1.5006 2.4689 2.1548 3.7577 0.67987 1.1981 1.1102 2.497 1.6504 3.7534 0.42966 1.1349 0.83689 2.2856 1.1622 3.4567 0.57658 1.6141 1.1907 3.2144 1.9673 4.744 0.85472 1.8854 1.8095 3.7239 2.5083 5.6757 0.6791 1.5675 1.137 3.215 1.6077 4.853 0.77336 2.2646 1.5698 4.5083 2.0293 6.8613 0.32568 1.9546 0.35246 3.9412 0.37025 5.9177 0.0673 2.0188 0.0421 4.0143-0.25115 6.012-0.28726 1.9147-0.84392 3.7881-1.5841 5.5766-1.0643 1.4891-1.7934 3.1545-2.7254 4.7202-1.3344 1.7855-2.3599 3.7575-3.654 5.5737-1.4013 1.739-2.839 3.4686-4.3766 5.0882-1.3953 1.3953-2.8787 2.6792-4.4116 3.9178-1.868 1.4399-3.4834 3.1739-5.3271 4.638-0.76839 0.57532-1.3119 1.4181-2.0486 2.0233-0.75148 0.61729-1.6781 1.1083-2.4748 1.671-1.316 1.0998-2.5554 2.2756-3.7687 3.4861-1.1614 1.1551-2.1893 2.4067-3.0523 3.7987-0.98649 1.2285-1.8997 2.4936-2.5259 3.9449-0.3908 1.2032-0.9662 2.3327-1.4524 3.4961-0.16808 1.1317-0.77425 2.0716-1.223 3.0984-0.38909 1.5921-1.0419 3.0995-1.5558 4.648-0.3878 1.6004-0.75107 3.2046-1.0866 4.8191-0.32991 1.7021-0.24646 3.4538-0.52843 5.1575-0.24616 1.2054-0.38347 2.4273-0.45795 3.6541-0.10403 1.192 0.15899 2.3884 0.55983 3.5075 0.44322 1.211 0.76269 2.4533 1.3024 3.6285 0.43755 1.3461 1.0649 2.6104 1.6265 3.9054 0.6882 1.4324 1.5116 2.7911 2.3708 4.1263 0.87198 1.2312 1.9692 2.3299 3.1509 3.2674 2.1277 1.3037 4.4293 2.2812 6.6648 3.3803 1.6678 1.0507 3.4451 1.808 5.3211 2.3879 1.9018 0.49545 3.8609 0.71204 5.819 0.81661 1.5788 0.062 3.1591 0.0642 4.7388 0.0728 2.264-0.0457 4.5279-0.07 6.7925-0.0591 1.8182-7e-3 3.6364 0.12992 5.4438-0.10376 1.8013-0.24259 3.544-0.75689 5.3366-1.0571 1.7127-0.22937 3.4397-0.25343 5.1489-0.5112 0.88376-0.19795 1.7598-0.42816 2.6387-0.64661l8.8416-6.8057c-0.8701 0.27952-1.7655 0.46266-2.6398 0.73059-1.6685 0.49687-3.4153 0.43098-5.1355 0.60843-1.8037 0.20863-3.5446 0.65792-5.3081 1.0389-1.8119 0.26974-3.6116 0.35042-5.4505 0.29699-2.2196 0.013-4.4387-8e-3 -6.658-0.0417-1.5856 0.0172-3.1714 0.0339-4.757 2e-3 -1.9046-0.0573-3.8184-0.15191-5.682-0.58242-1.8576-0.51671-3.6593-1.1863-5.325-2.1748-2.1789-1.0068-4.355-2.0363-6.3829-3.3179-1.1471-0.75861-2.1323-1.8182-2.9494-2.9148-0.83399-1.278-1.6862-2.5474-2.2688-3.9666-0.55479-1.3077-1.23-2.5628-1.6347-3.9338-0.52464-1.141-0.76812-2.376-1.2293-3.5422-0.32881-1.0112-0.45446-2.06-0.33929-3.1199 0.0903-1.1981 0.26179-2.3844 0.43294-3.5732 0.14311-1.6873 0.15003-3.3942 0.54243-5.0518 0.35653-1.5724 0.6636-3.1633 1.1609-4.6978 0.57479-1.515 0.98865-3.0884 1.6493-4.5711 0.51114-1.0142 0.85211-2.0726 1.2332-3.1376 0.51107-1.1236 0.89809-2.3016 1.411-3.4253 0.74049-1.3428 1.7027-2.5297 2.5627-3.7951 0.94567-1.3038 2.0153-2.4978 3.1876-3.6037 1.2053-1.1406 2.3647-2.3344 3.7371-3.2831 1.6159-1.128 3.0631-2.4054 4.4762-3.7778 1.7554-1.5577 3.4654-3.1688 5.3163-4.6159 1.5483-1.2709 3.045-2.6114 4.394-4.0954 1.4528-1.708 2.9928-3.3494 4.2712-5.1972 1.2503-1.8723 2.3977-3.8114 3.6611-5.6749 0.90059-1.6165 1.866-3.2023 2.6534-4.8762 0.67149-1.8847 1.2626-3.8153 1.4729-5.813 0.23687-2.0497 0.21311-4.1018 0.19528-6.163-0.0407-2.0379-0.13295-4.0793-0.508-6.0882-0.53985-2.3595-1.4352-4.6019-2.0074-6.951-0.45155-1.6751-0.97831-3.3313-1.682-4.9199-0.7604-1.9679-1.7145-3.8474-2.5648-5.7749-0.71663-1.4862-1.2625-3.0468-1.7897-4.6087-0.34935-1.2162-0.71876-2.436-1.2134-3.6011-0.56085-1.2662-1.044-2.5614-1.7191-3.7771-0.65757-1.3625-1.2654-2.7671-2.2868-3.9086-1.1778-1.5827-2.6752-2.8533-4.2934-3.9754-1.7539-1.1801-3.5157-2.3421-5.5261-3.055-2.1125-0.99139-4.2201-2.0206-6.4331-2.7719-3.7834-1.3458-7.7885-1.9387-11.798-2.0365-3.7029-0.14299-7.4025 1e-3 -11.01 0.93537-3.1096 0.76241-6.2191 1.5045-9.2302 2.6163-2.4185 0.68748-4.8206 1.4365-7.1742 2.3144-1.7641 0.84606-3.554 1.6718-5.38 2.3668-0.98468 0.50482-2.0449 0.89056-3.0058 1.4392-0.50362 0.28756-24.422 14.131-1.4875 0.90239-0.23841 0.13395-0.47771 0.26633-0.71524 0.40185-3.4076 1.9442-6.7622 3.9842-10.22 5.8372-2.986 1.6001 11.705-6.8267 8.8035-5.078-3.3578 2.0237-6.7868 3.9268-10.173 5.9032-0.30967 0.18077-1.1398 0.73308-1.4288 0.92334-1.9111 1.2582-3.6899 2.6441-5.154 4.4237-1.2241 1.2644-2.4477 2.5388-3.2212 4.1426-0.40983 0.95149-0.89939 1.8729-1.4486 2.7509-0.57667 1.1186-1.0339 2.2817-1.4767 3.4591-0.55451 1.2584-1.025 2.5619-1.3895 3.8877-0.45916 1.8405-0.83963 3.7024-0.97053 5.5988-0.11014 1.9708-0.08236 3.9553 0.18528 5.9136 0.3106 2.2509 0.77205 4.4762 1.0635 6.7299 0.45882 2.3082 1.0805 4.5821 1.569 6.8836 0.51296 1.8555 0.96933 3.7269 1.5664 5.5591 0.61042 2.0278 1.0704 4.0978 1.6455 6.1354 0.66593 1.9614 1.3392 3.9125 2.3749 5.7185 1.0571 1.7641 2.2204 3.4625 3.2894 5.2198 1.5046 1.973 2.746 4.1431 4.3825 6.0225 1.4108 2.1545 2.8305 4.3001 4.2858 6.4229 1.2311 1.8438 2.3504 3.7471 3.5625 5.6036 1.068 1.3021 1.932 2.7922 2.6068 4.3322 0.59773 1.1562 0.74002 2.4683 0.99216 3.7334 0.20809 1.3038 0.15986 2.6128 0.15275 3.9302 6e-6 1.3767 0.0054 2.7534 0.01125 4.1301 0.0093 1.4799 0.02236 2.9601-0.01016 4.4398-0.0019 1.1 5e-3 2.204-0.14047 3.2968-0.21961 1.4267-0.64362 2.7994-1.3398 4.0714-0.72218 1.3906-1.5414 2.727-2.3597 4.0627-0.97362 1.4267-2.1377 2.6957-3.4206 3.853-1.655 1.3928-3.4135 2.6429-5.1153 3.9757-1.6324 1.3883-3.1671 2.9131-5.0629 3.9516-0.94924 0.61147-1.8952 1.2276-2.8347 1.854-0.24094 0.16064-0.9728 0.62756-0.72066 0.48514 8.1598-4.6089 11.877-7.0284 8.3418-4.7414-1.5099 0.57421-2.9412 1.3212-4.4506 1.8839-2.1058 0.80524-4.3093 1.3128-6.4282 2.0871-2.1546 0.67299-4.2354 1.5932-6.4867 1.9292-2.9386 0.28522-5.8732 0.31559-8.8259 0.24649-2.5714-0.0303-5.1439-1e-3 -7.714-0.10029-2.1211-0.0861-4.2559-0.19022-6.3419-0.60907l-9.2147 6.3836z" style="fill:#031b02;stroke-width:.365"/><path d="m61.962 48.901c1.0791-1.4542 2.4916-2.5655 3.8561-3.732 3.2368-2.1004 8.5352-5.052-7.055 4.0417-0.25952 0.15138 0.52538-0.29163 0.7889-0.43593 0.86252-0.47229 0.67326-0.36777 1.5498-0.81938 1.8134-0.92407 3.7928-1.4444 5.7614-1.9188 2.0329-0.59129 4.1181-0.89801 6.2242-1.0556 1.4481-0.1601 2.9069-0.0185 4.1035 0.86412 0.59224 0.47821 1.1135 1.0279 1.6313 1.5829l9.5448-5.8301c-0.56965-0.56272-1.1013-1.1649-1.7242-1.6719-1.2818-1.1357-2.9406-1.656-4.6528-1.5135-2.1493 0.15537-4.3119 0.32357-6.3892 0.93735-1.9654 0.52642-3.9712 0.87453-5.8622 1.6641-4.7976 2.6078-9.8854 4.856-14.148 8.3015-1.4211 1.2284-2.7651 2.5285-3.962 3.981l10.334-4.3955z" style="fill:#031b02;stroke-width:.365"/><path d="m100.47 51.458c1.5904-0.96516 3.349-1.4739 5.1659-1.7892 2.0919-0.25902 4.2128-0.3557 6.3185-0.25823 1.5556 0.14034 3.1026 0.4214 4.436 1.2622 0.70187 0.47668 0.99637 1.2638 1.4067 1.9626 0.0588 0.1051 0.11756 0.21021 0.17635 0.31531l9.7312-5.6c-0.0645-0.11556-0.12902-0.23113-0.19353-0.34669-0.51756-0.83293-0.91812-1.7541-1.7354-2.3605-1.4836-0.9758-3.0686-1.4932-4.8544-1.6322-2.1401-0.26004-4.2967-0.0865-6.4434 0.0387-1.8357 0.21107-3.6312 0.54642-5.2986 1.3852l-8.7092 7.023z" style="fill:#031b02;stroke-width:.365"/><path d="m75.818 49.841c-0.6178-0.26849-1.243-0.51919-1.8877-0.71515-0.90888-0.26247-1.8503-0.36283-2.7905-0.42706-0.82752-0.0407-1.6565-0.0821-2.4847-0.0446-0.68983 0.0375-1.3635 0.20109-2.0275 0.38187-0.52334 0.14715-1.0392 0.31007-1.5239 0.55764-1.1086 0.8708-2.627 1.3163-3.6907 2.2985-0.35267 0.27356-0.55984 0.6791-0.76209 1.0673-0.19515 0.3425-0.37815 0.69398-0.54113 1.0534-0.1207 0.41663-0.25985 0.82759-0.3464 1.2534-0.07107 0.36-0.07348 0.72666-0.0786 1.0919 0.01455 0.3649 0.07276 0.74492 0.17977 1.0956 0.10746 0.35417 0.30107 0.67012 0.47893 0.99143 0.20416 0.31417 0.377 0.64818 0.604 0.94663 0.26882 0.35497 0.62128 0.60341 0.99723 0.83229 0.54476 0.35187 1.1494 0.55195 1.7639 0.74431 0.79322 0.28166 1.6219 0.4014 2.4559 0.47556 0.80038 0.0957 1.5769-0.0729 2.3451-0.27856 0.74765-0.2034 1.4839-0.44684 2.19-0.76634 1.1416-0.54589 2.2119-1.2357 3.3021-1.8704 0.2656-0.15461 0.49894-0.31965 0.73563-0.51479 0.39834-0.33322 0.75322-0.68776 1.0685-1.0998 0.23836-0.35939 0.39527-0.76874 0.51677-1.1809 0.06454-0.41204 0.12836-0.83468 0.07504-1.2505-0.05427-0.37786-0.16038-0.74796-0.29572-1.1045-0.11776-0.33094-0.223-0.6675-0.36132-0.9906-0.15709-0.37689-0.28828-0.76185-0.4105-1.1516-0.07942-0.30057-0.18569-0.59368-0.30409-0.88089-0.07101-0.134-0.13918-0.26782-0.21688-0.39808l-2.4156 1.4018c0.07273 0.11717 0.13275 0.23909 0.19424 0.3625 0.11763 0.27889 0.22156 0.56398 0.30735 0.85433 0.13472 0.39245 0.27264 0.78323 0.41586 1.1721 0.12797 0.32333 0.24777 0.64963 0.35996 0.9787 0.11933 0.33817 0.22456 0.684 0.26224 1.042 0.02268 0.38573-0.01902 0.77837-0.12505 1.1501-0.13063 0.38286-0.28346 0.76299-0.54038 1.0806-0.32166 0.38811-0.70128 0.71827-1.0898 1.0383-0.22279 0.16431-0.20303 0.15605-0.44398 0.30708-0.09181 0.0575-0.37218 0.22202-0.27792 0.16859 3.7904-2.1484 2.2331-1.2486 1.3804-0.8146-0.70383 0.3418-1.4374 0.61361-2.1913 0.82487-0.73718 0.21327-1.4933 0.39453-2.267 0.33712-0.82481-0.0494-1.6477-0.14519-2.4348-0.41149-0.58445-0.19489-1.1496-0.39824-1.6739-0.72683-0.34809-0.21249-0.68845-0.41879-0.9344-0.75386-0.22624-0.28002-0.37327-0.61465-0.58496-0.90611-0.1671-0.30535-0.33976-0.60963-0.44065-0.94515-0.09547-0.3274-0.14698-0.67652-0.14401-1.0174 0.0078-0.34868 0.02514-0.69855 0.09805-1.0407 0.09449-0.40554 0.21225-0.80957 0.37134-1.1943 0.17623-0.35125 0.35556-0.70108 0.55286-1.0411 0.21302-0.36659 0.43106-0.71715 0.78523-0.96774 0.86752-0.67553 3.1045-1.9181-1.0162 0.4647 0.47794-0.26745 0.97363-0.47208 1.5048-0.61387 0.65113-0.20714 1.3235-0.36067 2.0024-0.43852 0.82711-0.0716 1.6609-0.0193 2.4897-2e-3 0.9186 0.0528 1.8436 0.12905 2.7283 0.39941 0.62295 0.16657 1.2291 0.38663 1.7879 0.71332l2.3483-1.538z" style="fill:#031b02;stroke-width:.365"/><path d="m117.98 52.951c-0.6178-0.26849-1.243-0.51919-1.8877-0.71515-0.90888-0.26247-1.8503-0.36283-2.7905-0.42706-0.82752-0.0407-1.6565-0.0821-2.4847-0.0446-0.68983 0.0375-1.3635 0.20109-2.0275 0.38187-0.52334 0.14715-1.0392 0.31007-1.5239 0.55764-1.1086 0.8708-2.627 1.3163-3.6907 2.2985-0.35267 0.27356-0.55983 0.6791-0.76209 1.0673-0.19515 0.3425-0.37815 0.69398-0.54113 1.0534-0.12069 0.41663-0.25984 0.82759-0.34639 1.2534-0.0711 0.36-0.0735 0.72666-0.0786 1.0919 0.0145 0.3649 0.0728 0.74492 0.17977 1.0956 0.10746 0.35417 0.30107 0.67012 0.47893 0.99143 0.20416 0.31417 0.377 0.64818 0.604 0.94663 0.26883 0.35497 0.62128 0.60341 0.99723 0.83229 0.54476 0.35187 1.1494 0.55195 1.7639 0.74431 0.79321 0.28166 1.6219 0.4014 2.4559 0.47556 0.80038 0.0957 1.5769-0.0729 2.3451-0.27856 0.74766-0.2034 1.4838-0.44684 2.19-0.76634 1.1416-0.54589 2.2119-1.2357 3.3021-1.8704 0.26561-0.15461 0.49894-0.31965 0.73564-0.51479 0.39833-0.33322 0.75321-0.68776 1.0684-1.0998 0.23835-0.35939 0.39527-0.76874 0.51677-1.1809 0.0645-0.41204 0.12836-0.83468 0.075-1.2505-0.0543-0.37786-0.16038-0.74796-0.29572-1.1045-0.11776-0.33094-0.223-0.6675-0.36132-0.9906-0.15709-0.37689-0.28828-0.76185-0.4105-1.1516-0.0794-0.30057-0.18569-0.59368-0.30409-0.88089-0.071-0.134-0.13919-0.26782-0.21688-0.39808l-2.4156 1.4018c0.0727 0.11717 0.13275 0.23909 0.19424 0.3625 0.11763 0.27889 0.22156 0.56398 0.30735 0.85433 0.13472 0.39245 0.27263 0.78323 0.41586 1.1721 0.12797 0.32333 0.24776 0.64963 0.35995 0.9787 0.11933 0.33817 0.22456 0.684 0.26224 1.042 0.0227 0.38573-0.019 0.77837-0.12505 1.1501-0.13063 0.38286-0.28346 0.76299-0.54038 1.0806-0.32165 0.38811-0.70127 0.71827-1.0898 1.0383-0.22279 0.16431-0.20303 0.15605-0.44398 0.30708-0.0918 0.0575-0.37218 0.22202-0.27792 0.16859 3.7904-2.1484 2.2331-1.2486 1.3804-0.8146-0.70383 0.3418-1.4374 0.61361-2.1913 0.82487-0.73718 0.21327-1.4933 0.39453-2.267 0.33712-0.82481-0.0494-1.6477-0.14519-2.4348-0.41149-0.58444-0.19489-1.1496-0.39824-1.6739-0.72683-0.34809-0.21249-0.68845-0.41879-0.9344-0.75386-0.22624-0.28002-0.37326-0.61465-0.58495-0.90611-0.1671-0.30535-0.33976-0.60963-0.44065-0.94515-0.0955-0.3274-0.14698-0.67652-0.14401-1.0174 8e-3 -0.34868 0.0251-0.69855 0.0981-1.0407 0.0945-0.40554 0.21225-0.80957 0.37134-1.1943 0.17623-0.35125 0.35556-0.70108 0.55286-1.0411 0.21302-0.36659 0.43106-0.71715 0.78523-0.96774 0.86752-0.67553 3.1045-1.9181-1.0162 0.4647 0.47794-0.26745 0.97363-0.47208 1.5048-0.61387 0.65113-0.20714 1.3235-0.36067 2.0024-0.43852 0.82711-0.0716 1.6608-0.0193 2.4897-2e-3 0.9186 0.0528 1.8436 0.12905 2.7283 0.39941 0.62295 0.16657 1.2291 0.38663 1.7879 0.71332l2.3483-1.538z" style="fill:#031b02;stroke-width:.365"/><path d="m61.174 76.905c0.87297 1.3186 1.893 2.5323 2.9131 3.7387 1.0349 1.1382 2.1747 2.1914 3.3887 3.1369 1.0179 0.87057 2.2876 1.3277 3.5333 1.7648 1.6803 0.67155 3.4255 1.1158 5.201 1.4454 2.0143 0.35083 4.0251 0.67928 6.0635 0.8497 1.9983 0.20547 3.9572 0.18601 5.9319-0.16693 1.7391-0.29908 3.3529-0.97232 4.9587-1.6722 0.24537-0.12104 0.49858-0.22733 0.73611-0.36311 2.4557-1.4038 4.8841-2.8552 7.3422-4.2549 1.9914-1.1339-3.9666 2.2961-5.942 3.4576-0.23557 0.1385 0.48495-0.25238 0.72194-0.38845 2.4574-1.4109 4.8993-2.8488 7.361-4.2524 2.0006-1.1407-3.9853 2.3093-5.978 3.4639 2.0791-2.3579 5.2627-2.9418 7.8011-4.5646 1.0977-0.70176-0.0894 0.0306 0.99391-0.7191 0.16575-0.11471 0.68868-0.41916 0.51426-0.31813-2.0675 1.1977-4.1291 2.4054-6.1937 3.6081 6.2581-2.4071 6.1393-3.5484 9.7958-6.5036 1.0351-0.99224 2.117-1.9472 3.0241-3.0606l-7.1943 3.0386c-0.96288 1.0334-1.9914 2.0057-3.0471 2.9435-0.58527 0.52304-1.1508 1.0748-1.7607 1.5694-2.09 1.6952-6.4106 3.3652 5.2914-2.9109-2.4057 1.3893-4.8198 2.7643-7.2172 4.1678-0.51834 0.30345-1.0028 0.69178-1.5115 1.0145-0.17295 0.10973-0.69676 0.43067-0.51862 0.32958 2.0326-1.1534 4.0551-2.3246 6.0826-3.487-24.477 14.084 4.2781-2.4433-2.1037 1.1947-2.4619 1.4034-4.9182 2.8167-7.3781 4.2236-1.758 1.0054 8.9205-5.0925 5.2702-3.0228-1.578 0.74757-3.1736 1.4563-4.8831 1.8523-0.62612 0.12023-1.2461 0.277-1.8777 0.364-1.3076 0.1801-2.6364-1.2e-4 -3.947-0.0258-2.0267-0.14639-4.0237-0.45624-6.0282-0.77938-1.7274-0.30355-3.4293-0.74836-5.0597-1.4022-1.1792-0.3886-2.3767-0.8337-3.3754-1.5863-1.2338-0.83844-2.3056-1.8941-3.3388-2.9648-1.0196-1.1231-2.0174-2.2991-2.6876-3.6697l-6.8822 3.9498z" style="fill:#031b02;stroke-width:.365"/></svg>
